<svg xmlns="http://www.w3.org/2000/svg" version="1.1" xmlns:xlink="http://www.w3.org/1999/xlink" width="2000" height="1500" viewBox="0 0 2000 1500"><rect width="2000" height="1500" fill="#ffffff"></rect><g transform="matrix(0.75,0,0,0.75,249.090909090909,452.59398726918096)"><svg viewBox="0 0 396 157" data-background-color="#ffffff" preserveAspectRatio="xMidYMid meet" height="792" width="2000" xmlns="http://www.w3.org/2000/svg"><g id="tight-bounds" transform="matrix(1,0,0,1,0.2400000000000091,0.10731312918954927)"><svg viewBox="0 0 395.52 156.7853737416209" height="156.7853737416209" width="395.52"><g><svg viewBox="0 0 395.52 156.7853737416209" height="156.7853737416209" width="395.52"><g transform="matrix(1,0,0,1,0,96.89965088956433)"><svg viewBox="0 0 395.52 59.88572285205659" height="59.88572285205659" width="395.52"><g id="textblocktransform"><svg viewBox="0 0 395.52 59.88572285205659" height="59.88572285205659" width="395.52" id="textblock"><g><svg viewBox="0 0 395.52 59.88572285205659" height="59.88572285205659" width="395.52"><g transform="matrix(1,0,0,1,0,0)"><svg width="395.52" viewBox="1.75 -31.03 266.8 40.410000000000004" height="59.88572285205659" data-palette-color="#2257bf"><path d="M10.93 0.55L10.93 0.55Q7.98 0.55 5.78-0.09 3.58-0.73 2.13-1.48L2.13-1.48 1.75-5.23Q3.58-4.28 5.76-3.58 7.95-2.88 10.73-2.88L10.73-2.88Q13.55-2.88 14.98-3.78 16.4-4.67 16.4-6.45L16.4-6.45 16.4-6.73Q16.4-7.88 15.86-8.63 15.33-9.38 13.93-9.95 12.53-10.53 9.95-11.1L9.95-11.1Q6.88-11.78 5.1-12.69 3.33-13.6 2.56-14.95 1.8-16.3 1.8-18.25L1.8-18.25 1.8-18.48Q1.8-21.68 4.03-23.33 6.25-24.98 10.73-24.98L10.73-24.98Q13.6-24.98 15.71-24.33 17.82-23.68 19.18-22.88L19.18-22.88 19.55-19.45Q17.93-20.4 15.83-21.03 13.73-21.65 11.1-21.65L11.1-21.65Q9.2-21.65 8.03-21.26 6.85-20.88 6.33-20.16 5.8-19.45 5.8-18.45L5.8-18.45 5.8-18.25Q5.8-17.15 6.33-16.39 6.85-15.63 8.21-15.06 9.58-14.5 12-13.98L12-13.98Q15.13-13.35 16.96-12.48 18.8-11.6 19.6-10.26 20.4-8.93 20.4-6.83L20.4-6.83 20.4-6.4Q20.4-2.95 18-1.2 15.6 0.55 10.93 0.55ZM34.22 0.5L34.22 0.5Q31.4 0.5 29.67-0.35 27.95-1.2 27.17-2.93 26.4-4.65 26.4-7.23L26.4-7.23 26.4-22.63 30.4-22.63 30.4-7.7Q30.4-5.3 31.5-4.16 32.6-3.03 35.2-3.03L35.2-3.03Q36.67-3.03 38.03-3.35 39.4-3.68 40.6-4.28L40.6-4.28 40.22-0.8Q39.05-0.2 37.47 0.15 35.9 0.5 34.22 0.5ZM39.97-20.8L22.4-20.8 22.4-24.05 40.35-24.05 39.97-20.8ZM30.3-23.65L26.42-23.65 26.4-30.5 30.47-31.03 30.3-23.65ZM54.82 0.63L54.82 0.63Q49.57 0.63 46.86-2.21 44.15-5.05 44.15-10.38L44.15-10.38 44.15-14.1Q44.15-19.4 46.87-22.23 49.6-25.05 54.82-25.05L54.82-25.05Q60.07-25.05 62.78-22.23 65.5-19.4 65.5-14.1L65.5-14.1 65.5-10.38Q65.5-5.05 62.78-2.21 60.07 0.63 54.82 0.63ZM54.82-2.68L54.82-2.68Q58.07-2.68 59.76-4.6 61.45-6.53 61.45-10.15L61.45-10.15 61.45-14.33Q61.45-17.93 59.76-19.84 58.07-21.75 54.82-21.75L54.82-21.75Q51.6-21.75 49.9-19.84 48.2-17.93 48.2-14.33L48.2-14.33 48.2-10.15Q48.2-6.53 49.9-4.6 51.6-2.68 54.82-2.68ZM74.97-14.93L74.97-14.93 74.04-18.05 75.04-18.1Q75.84-21.2 77.79-22.99 79.74-24.78 82.97-24.78L82.97-24.78Q83.77-24.78 84.41-24.65 85.04-24.53 85.54-24.35L85.54-24.35 85.79-20.43Q85.17-20.63 84.41-20.75 83.64-20.88 82.72-20.88L82.72-20.88Q79.97-20.88 77.93-19.35 75.89-17.82 74.97-14.93ZM75.17 0L71.12 0 71.12-24.4 75.07-24.4 74.87-17.2 75.17-16.9 75.17 0ZM108.27 0L104.24 0 104.42-5.93 104.27-6.55 104.27-14.33 104.29-15.75Q104.29-18.73 102.78-20.15 101.27-21.58 97.99-21.58L97.99-21.58Q95.37-21.58 93.18-20.83 90.99-20.08 89.29-19.07L89.29-19.07 89.67-22.53Q90.62-23.1 91.93-23.66 93.24-24.23 94.93-24.6 96.62-24.98 98.64-24.98L98.64-24.98Q101.27-24.98 103.1-24.34 104.94-23.7 106.08-22.5 107.22-21.3 107.74-19.6 108.27-17.9 108.27-15.8L108.27-15.8 108.27 0ZM95.84 0.53L95.84 0.53Q92.22 0.53 90.28-1.24 88.34-3 88.34-6.28L88.34-6.28 88.34-7Q88.34-10.38 90.43-12.04 92.52-13.7 97.07-14.35L97.07-14.35 104.79-15.45 105.02-12.5 97.57-11.43Q94.77-11.03 93.57-10.06 92.37-9.1 92.37-7.23L92.37-7.23 92.37-6.83Q92.37-4.9 93.55-3.88 94.74-2.85 97.12-2.85L97.12-2.85Q99.22-2.85 100.72-3.58 102.22-4.3 103.14-5.53 104.07-6.75 104.39-8.25L104.39-8.25 105.02-5.5 104.24-5.5Q103.89-3.9 102.93-2.53 101.97-1.15 100.24-0.31 98.52 0.53 95.84 0.53ZM123.96-7.3L123.96-7.3Q118.99-7.3 116.33-9.47 113.66-11.65 113.66-15.7L113.66-15.7 113.66-16.32Q113.66-18.85 114.7-20.73 115.74-22.6 118.01-23.66 120.29-24.73 123.96-24.83L123.96-24.83 136.41-25.23 136.41-22.03 129.06-22.28 129.04-22.1Q130.76-21.75 131.86-20.9 132.96-20.05 133.5-18.78 134.04-17.5 134.04-15.8L134.04-15.8 134.04-15.25Q134.04-11.38 131.49-9.34 128.94-7.3 123.96-7.3ZM123.79 6.15L123.79 6.15 124.36 6.15Q126.61 6.15 128.23 5.81 129.84 5.48 130.71 4.75 131.59 4.03 131.59 2.83L131.59 2.83 131.59 2.73Q131.59 1.33 130.58 0.59 129.56-0.15 127.11-0.38L127.11-0.38 120.21-1 121.36-1.05Q119.96-0.85 118.9-0.4 117.84 0.05 117.24 0.79 116.64 1.53 116.64 2.63L116.64 2.63 116.64 2.68Q116.64 3.95 117.51 4.73 118.39 5.5 119.99 5.83 121.59 6.15 123.79 6.15ZM124.29 9.38L123.56 9.38Q120.26 9.38 117.88 8.81 115.49 8.25 114.18 6.99 112.86 5.73 112.86 3.6L112.86 3.6 112.86 3.5Q112.86 2 113.58 1 114.29 0 115.5-0.58 116.71-1.15 118.21-1.35L118.21-1.35 118.19-1.5Q116.14-1.85 115.16-2.71 114.19-3.58 114.19-4.95L114.19-4.95 114.19-4.98Q114.19-5.93 114.63-6.6 115.06-7.28 115.95-7.68 116.84-8.08 118.21-8.18L118.21-8.18 118.21-8.68 122.86-7.5 120.96-7.55Q119.26-7.53 118.61-7.14 117.96-6.75 117.96-5.98L117.96-5.98 117.96-5.95Q117.96-5.13 118.89-4.7 119.81-4.28 122.04-4.03L122.04-4.03 127.96-3.43Q131.84-3.03 133.61-1.56 135.39-0.1 135.39 2.75L135.39 2.75 135.39 2.88Q135.39 5.15 134.04 6.6 132.69 8.05 130.21 8.71 127.74 9.38 124.29 9.38L124.29 9.38ZM123.91-10.3L123.91-10.3Q126.01-10.3 127.4-10.91 128.79-11.53 129.5-12.76 130.21-14 130.21-15.8L130.21-15.8 130.21-16.4Q130.21-18.15 129.53-19.38 128.84-20.6 127.46-21.24 126.09-21.88 124.01-21.88L124.01-21.88 123.86-21.88Q121.61-21.88 120.2-21.19 118.79-20.5 118.15-19.26 117.51-18.03 117.51-16.38L117.51-16.38 117.51-15.8Q117.51-14 118.23-12.78 118.94-11.55 120.36-10.93 121.79-10.3 123.91-10.3ZM150.34 0.55L150.34 0.55Q144.76 0.55 141.94-2.18 139.11-4.9 139.11-9.98L139.11-9.98 139.11-14.33Q139.11-19.48 141.74-22.26 144.36-25.05 149.41-25.05L149.41-25.05Q152.81-25.05 155.09-23.79 157.36-22.53 158.51-20.2 159.66-17.88 159.66-14.65L159.66-14.65 159.66-13.75Q159.66-12.95 159.6-12.15 159.54-11.35 159.44-10.58L159.44-10.58 155.71-10.58Q155.76-11.78 155.77-12.85 155.79-13.93 155.79-14.83L155.79-14.83Q155.79-17.05 155.07-18.59 154.36-20.13 152.95-20.94 151.54-21.75 149.41-21.75L149.41-21.75Q146.26-21.75 144.69-19.93 143.11-18.1 143.11-14.7L143.11-14.7 143.11-12.38 143.14-11.88 143.14-9.55Q143.14-8.03 143.59-6.8 144.04-5.58 145-4.69 145.96-3.8 147.45-3.34 148.94-2.88 150.99-2.88L150.99-2.88Q153.36-2.88 155.41-3.5 157.46-4.13 159.26-5.2L159.26-5.2 158.89-1.7Q157.26-0.68 155.11-0.06 152.96 0.55 150.34 0.55ZM158.59-10.58L141.24-10.58 141.24-13.63 158.59-13.63 158.59-10.58ZM174.56-7.3L174.56-7.3Q169.58-7.3 166.92-9.47 164.26-11.65 164.26-15.7L164.26-15.7 164.26-16.32Q164.26-18.85 165.3-20.73 166.33-22.6 168.61-23.66 170.88-24.73 174.56-24.83L174.56-24.83 187.01-25.23 187.01-22.03 179.66-22.28 179.63-22.1Q181.36-21.75 182.46-20.9 183.56-20.05 184.1-18.78 184.63-17.5 184.63-15.8L184.63-15.8 184.63-15.25Q184.63-11.38 182.08-9.34 179.53-7.3 174.56-7.3ZM174.38 6.15L174.38 6.15 174.96 6.15Q177.21 6.15 178.82 5.81 180.43 5.48 181.31 4.75 182.18 4.03 182.18 2.83L182.18 2.83 182.18 2.73Q182.18 1.33 181.17 0.59 180.16-0.15 177.71-0.38L177.71-0.38 170.81-1 171.96-1.05Q170.56-0.85 169.5-0.4 168.43 0.05 167.83 0.79 167.23 1.53 167.23 2.63L167.23 2.63 167.23 2.68Q167.23 3.95 168.11 4.73 168.98 5.5 170.58 5.83 172.18 6.15 174.38 6.15ZM174.88 9.38L174.16 9.38Q170.86 9.38 168.47 8.81 166.08 8.25 164.77 6.99 163.46 5.73 163.46 3.6L163.46 3.6 163.46 3.5Q163.46 2 164.17 1 164.88 0 166.1-0.58 167.31-1.15 168.81-1.35L168.81-1.35 168.78-1.5Q166.73-1.85 165.76-2.71 164.78-3.58 164.78-4.95L164.78-4.95 164.78-4.98Q164.78-5.93 165.22-6.6 165.66-7.28 166.55-7.68 167.43-8.08 168.81-8.18L168.81-8.18 168.81-8.68 173.46-7.5 171.56-7.55Q169.86-7.53 169.21-7.14 168.56-6.75 168.56-5.98L168.56-5.98 168.56-5.95Q168.56-5.13 169.48-4.7 170.41-4.28 172.63-4.03L172.63-4.03 178.56-3.43Q182.43-3.03 184.21-1.56 185.98-0.1 185.98 2.75L185.98 2.75 185.98 2.88Q185.98 5.15 184.63 6.6 183.28 8.05 180.81 8.71 178.33 9.38 174.88 9.38L174.88 9.38ZM174.51-10.3L174.51-10.3Q176.61-10.3 178-10.91 179.38-11.53 180.1-12.76 180.81-14 180.81-15.8L180.81-15.8 180.81-16.4Q180.81-18.15 180.12-19.38 179.43-20.6 178.06-21.24 176.68-21.88 174.61-21.88L174.61-21.88 174.46-21.88Q172.21-21.88 170.8-21.19 169.38-20.5 168.75-19.26 168.11-18.03 168.11-16.38L168.11-16.38 168.11-15.8Q168.11-14 168.82-12.78 169.53-11.55 170.96-10.93 172.38-10.3 174.51-10.3ZM194.53-14.93L194.53-14.93 193.61-18.05 194.61-18.1Q195.41-21.2 197.36-22.99 199.31-24.78 202.53-24.78L202.53-24.78Q203.33-24.78 203.97-24.65 204.61-24.53 205.11-24.35L205.11-24.35 205.36-20.43Q204.73-20.63 203.97-20.75 203.21-20.88 202.28-20.88L202.28-20.88Q199.53-20.88 197.49-19.35 195.46-17.82 194.53-14.93ZM194.73 0L190.68 0 190.68-24.4 194.63-24.4 194.43-17.2 194.73-16.9 194.73 0ZM227.83 0L223.8 0 223.98-5.93 223.83-6.55 223.83-14.33 223.85-15.75Q223.85-18.73 222.34-20.15 220.83-21.58 217.55-21.58L217.55-21.58Q214.93-21.58 212.74-20.83 210.55-20.08 208.85-19.07L208.85-19.07 209.23-22.53Q210.18-23.1 211.49-23.66 212.8-24.23 214.49-24.6 216.18-24.98 218.2-24.98L218.2-24.98Q220.83-24.98 222.67-24.34 224.5-23.7 225.64-22.5 226.78-21.3 227.3-19.6 227.83-17.9 227.83-15.8L227.83-15.8 227.83 0ZM215.4 0.53L215.4 0.53Q211.78 0.53 209.84-1.24 207.9-3 207.9-6.28L207.9-6.28 207.9-7Q207.9-10.38 209.99-12.04 212.08-13.7 216.63-14.35L216.63-14.35 224.35-15.45 224.58-12.5 217.13-11.43Q214.33-11.03 213.13-10.06 211.93-9.1 211.93-7.23L211.93-7.23 211.93-6.83Q211.93-4.9 213.12-3.88 214.3-2.85 216.68-2.85L216.68-2.85Q218.78-2.85 220.28-3.58 221.78-4.3 222.7-5.53 223.63-6.75 223.95-8.25L223.95-8.25 224.58-5.5 223.8-5.5Q223.45-3.9 222.49-2.53 221.53-1.15 219.8-0.31 218.08 0.53 215.4 0.53ZM268.55 0L264.5 0 264.5-15.28Q264.5-17.2 264.01-18.61 263.53-20.03 262.41-20.8 261.3-21.58 259.43-21.58L259.43-21.58Q257.65-21.58 256.35-20.85 255.05-20.13 254.25-18.91 253.45-17.7 253.13-16.15L253.13-16.15 252.5-19.03 253-19.03Q253.4-20.6 254.35-21.95 255.3-23.3 256.93-24.13 258.55-24.95 260.95-24.95L260.95-24.95Q263.68-24.95 265.34-23.88 267-22.8 267.78-20.74 268.55-18.68 268.55-15.73L268.55-15.73 268.55 0ZM238.08 0L234.03 0 234.03-24.4 238.08-24.4 237.9-18.55 238.08-18.3 238.08 0ZM253.3 0L249.28 0 249.28-15.28Q249.28-17.2 248.79-18.61 248.3-20.03 247.2-20.8 246.1-21.58 244.23-21.58L244.23-21.58Q242.43-21.58 241.13-20.85 239.83-20.13 239.03-18.89 238.23-17.65 237.9-16.07L237.9-16.07 237.15-18.95 238.05-18.95Q238.43-20.6 239.35-21.96 240.28-23.33 241.86-24.14 243.45-24.95 245.73-24.95L245.73-24.95Q249.1-24.95 250.86-23.2 252.63-21.45 253.08-18.1L253.08-18.1Q253.2-17.6 253.25-17.01 253.3-16.43 253.3-15.85L253.3-15.85 253.3 0Z" opacity="1" transform="matrix(1,0,0,1,0,0)" fill="#2257bf" class="wordmark-text-0" data-fill-palette-color="primary" id="text-0"></path></svg></g></svg></g></svg></g></svg></g><g transform="matrix(1,0,0,1,130.24570320428424,0)"><svg viewBox="0 0 135.0285935914315 82.76206898154221" height="82.76206898154221" width="135.0285935914315"><g><svg xmlns="http://www.w3.org/2000/svg" xmlns:xlink="http://www.w3.org/1999/xlink" version="1.1" x="8" y="0" viewBox="0 17 128 89" style="enable-background:new 0 0 128 128;" xml:space="preserve" height="82.76206898154221" width="119.0285935914315" class="icon-icon-0" data-fill-palette-color="accent" id="icon-0"><g fill="#2257bf" data-fill-palette-color="accent"><path d="M110.81 47.379C110.811 47.289 110.825 47.196 110.825 47.102 110.825 34.325 100.479 23.965 87.72 23.965 83.446 23.965 79.46 25.143 76.029 27.17 70.7 20.947 62.805 17 53.98 17 38.259 17 25.464 29.52 24.968 45.14 10.86 47.123 0 59.25 0 73.925 0 84.623 5.774 93.966 14.368 99.014A24.5 24.5 0 0 1 11.916 94.68C8.596 87.073 9.665 78.575 14.773 71.947 24.75 59 42.805 60.313 54.727 68.121 59.1 70.986 62.694 74.658 66.035 78.454A6 6 0 0 1 67.564 76.173C70.927 73.039 77.797 67.266 86.024 63.803 94.876 60.083 106.591 62.353 113.278 69.084 119.352 75.196 121.588 84.793 118.844 92.965A20.4 20.4 0 0 1 117.254 96.502C123.809 91.172 128 83.039 128 73.924 128 62.096 120.94 51.919 110.81 47.379M63.834 34.773C63.529 35.233 62.908 35.358 62.448 35.055 60.018 33.446 56.998 32.745 53.94 33.083 49.246 33.6 45.37 36.565 44.294 40.46A8.2 8.2 0 0 0 44.091 43.851 1 1 0 1 1 42.113 44.149 10.15 10.15 0 0 1 42.366 39.931C43.658 35.25 48.221 31.7 53.721 31.094 57.238 30.708 60.732 31.52 63.552 33.387A1 1 0 0 1 63.834 34.773" fill="#2257bf" data-fill-palette-color="accent"></path><path d="M64.434 94.945A6 6 0 0 1 63.229 96.77C61.299 98.776 58.985 100.977 56.279 103H73.125C69.876 100.623 67.043 97.821 64.434 94.945" fill="#2257bf" data-fill-palette-color="accent"></path></g><g fill="#2257bf" data-fill-palette-color="accent"><path d="M36.52 106C35.673 106 34.806 105.96 33.917 105.879 25.726 105.129 18.7 100.226 15.582 93.079 12.814 86.737 13.674 79.925 17.941 74.39 26.45 63.348 42.115 64.644 52.535 71.469 57.845 74.945 62.08 79.932 66.177 84.755 72.787 92.536 79.032 99.887 89.416 101.407 98.952 102.801 108.755 97.871 111.26 90.417 113.036 85.131 111.532 78.676 107.602 74.722 103.158 70.246 95.042 68.688 89.127 71.178 83.951 73.355 78.079 77.31 73.017 82.025A1.999 1.999 0 1 1 70.291 79.1C73.459 76.146 79.919 70.713 87.576 67.49 95.008 64.365 104.838 66.26 110.44 71.902 115.473 76.968 117.327 84.92 115.052 91.69 111.907 101.048 100.398 107.06 88.836 105.364 76.96 103.626 69.93 95.35 63.13 87.344 59.036 82.527 55.169 77.975 50.343 74.815 41.302 68.891 27.895 68.025 21.11 76.83 17.76 81.177 17.082 86.516 19.248 91.48 21.783 97.29 27.543 101.28 34.28 101.896 42.604 102.646 49.536 99.466 57.463 91.224A2 2 0 0 1 60.346 93.997C54.888 99.671 47.334 106 36.521 106" fill="#2257bf" data-fill-palette-color="accent"></path></g><g fill="#2257bf" data-fill-palette-color="accent"><path d="M24 85A1 1 0 0 1 23.043 83.709C23.931 80.796 26.16 77.013 31.744 75.533A1 1 0 0 1 32.256 77.467C27.562 78.71 25.696 81.864 24.956 84.29A1 1 0 0 1 24 85" fill="#2257bf" data-fill-palette-color="accent"></path></g><g fill="#2257bf" data-fill-palette-color="accent"><path d="M97.615 95.502A1 1 0 0 1 97.37 93.532C101.485 92.487 103.27 89.245 104.043 86.71A1 1 0 1 1 105.956 87.291C105.035 90.319 102.88 94.197 97.863 95.471A1 1 0 0 1 97.615 95.503" fill="#2257bf" data-fill-palette-color="accent"></path></g></svg></g></svg></g><g><rect width="130.24570320428424" height="5.400556288864447" y="76.36151269267776" x="265.2742967957157" fill="#2257bf" data-fill-palette-color="accent"></rect><rect width="130.24570320428424" height="5.400556288864447" y="76.36151269267776" x="0" fill="#2257bf" data-fill-palette-color="accent"></rect><rect width="130.24570320428424" height="5.400556288864447" y="65.56040011494888" x="265.2742967957157" fill="#2257bf" data-fill-palette-color="accent"></rect><rect width="130.24570320428424" height="5.400556288864447" y="65.56040011494888" x="0" fill="#2257bf" data-fill-palette-color="accent"></rect></g></svg></g><defs></defs></svg><rect width="395.52" height="156.7853737416209" fill="none" stroke="none" visibility="hidden"></rect></g></svg></g></svg>